<svg width="671" height="1050" viewBox="0 0 671 1050" fill="none" xmlns="http://www.w3.org/2000/svg">
<path fill-rule="evenodd" clip-rule="evenodd" d="M78.738 214.784L55.3012 223.803L258.939 745.199L272.339 710.887L78.738 214.784ZM23.0445 218.866L21.0862 213.778L96.0804 184.917L97.3007 188.088L99.036 187.411L287.836 671.211L323.14 580.817L174.239 197.221H204.889L338.924 540.404L464.504 218.866H495.154L354.514 580.322L410.455 723.554L616.02 197.221H646.67L424.194 769H396.187L338.712 620.934L303.516 711.391L329.918 779.046L303.032 789.538L288.049 751.142L272.678 790.645H244.671L22.7231 218.866H23.0445Z" fill="#FFD600"/>
</svg>
